<svg width="980" height="720" viewBox="0 0 980 720" fill="none" xmlns="http://www.w3.org/2000/svg">
  <defs>
    <linearGradient id="bg" x1="0" y1="0" x2="1" y2="1">
      <stop offset="0" stop-color="#E6F4F1"/>
      <stop offset="0.55" stop-color="#F8F6F1"/>
      <stop offset="1" stop-color="#E3ECF8"/>
    </linearGradient>
    <linearGradient id="teal" x1="0" y1="0" x2="1" y2="1">
      <stop offset="0" stop-color="#0F766E"/>
      <stop offset="1" stop-color="#0EA5A2"/>
    </linearGradient>
    <linearGradient id="navy" x1="0" y1="0" x2="1" y2="1">
      <stop offset="0" stop-color="#0F172A"/>
      <stop offset="1" stop-color="#1E293B"/>
    </linearGradient>
  </defs>

  <circle cx="220" cy="210" r="130" fill="#D9EEF0"/>
  <circle cx="760" cy="200" r="90" fill="#E8EEF8"/>
  <circle cx="740" cy="520" r="140" fill="#E5F2EF"/>

  <rect x="150" y="180" width="420" height="300" rx="24" fill="#FFFFFF" fill-opacity="0.92" stroke="#E2E8F0" stroke-opacity="0.7"/>
  <rect x="180" y="210" width="200" height="18" rx="9" fill="#0F766E"/>
  <rect x="180" y="245" width="320" height="12" rx="6" fill="#CBD5F5"/>
  <rect x="180" y="270" width="260" height="12" rx="6" fill="#D1FAE5"/>
  <rect x="180" y="295" width="220" height="12" rx="6" fill="#E2E8F0"/>

  <rect x="180" y="335" width="150" height="90" rx="12" fill="#F8FAFC" stroke="#E2E8F0"/>
  <rect x="350" y="335" width="200" height="90" rx="12" fill="#F8FAFC" stroke="#E2E8F0"/>
  <circle cx="225" cy="380" r="20" fill="#0EA5A2"/>
  <rect x="380" y="360" width="140" height="12" rx="6" fill="#0F172A"/>
  <rect x="380" y="382" width="100" height="10" rx="5" fill="#94A3B8"/>

  <rect x="590" y="170" width="220" height="320" rx="26" fill="#0F172A" fill-opacity="0.95"/>
  <rect x="610" y="200" width="180" height="110" rx="16" fill="url(#teal)"/>
  <rect x="610" y="330" width="180" height="12" rx="6" fill="#94A3B8"/>
  <rect x="610" y="352" width="140" height="12" rx="6" fill="#CBD5F5"/>
  <rect x="610" y="374" width="120" height="12" rx="6" fill="#CBD5F5"/>

  <rect x="120" y="520" width="360" height="120" rx="22" fill="#FFFFFF" fill-opacity="0.9" stroke="#E2E8F0" stroke-opacity="0.7"/>
  <rect x="150" y="550" width="180" height="14" rx="7" fill="#0F766E"/>
  <rect x="150" y="575" width="260" height="10" rx="5" fill="#CBD5F5"/>
  <rect x="150" y="595" width="230" height="10" rx="5" fill="#D1FAE5"/>

  <path d="M400 150C420 120 460 110 500 120C540 130 560 160 560 190" stroke="url(#teal)" stroke-width="10" stroke-linecap="round"/>
  <circle cx="570" cy="210" r="16" fill="#0EA5A2"/>
  <path d="M700 130C720 110 750 105 780 115" stroke="url(#navy)" stroke-width="8" stroke-linecap="round"/>
  <circle cx="800" cy="130" r="10" fill="#1E293B"/>
</svg>
