<svg xmlns="http://www.w3.org/2000/svg" width="800" height="600" viewBox="0 0 800 600" fill="none">
  <defs>
    <linearGradient id="gradBg" x1="0" y1="0" x2="1" y2="1">
      <stop offset="0%" stop-color="#0ea5e9"/>
      <stop offset="100%" stop-color="#6366f1"/>
    </linearGradient>
    <linearGradient id="gradArrow" x1="0" y1="0" x2="1" y2="0">
      <stop offset="0%" stop-color="#22d3ee"/>
      <stop offset="100%" stop-color="#f472b6"/>
    </linearGradient>
    <filter id="shadow" x="-20%" y="-20%" width="140%" height="140%">
      <feDropShadow dx="0" dy="10" stdDeviation="18" flood-color="rgba(0,0,0,0.25)"/>
    </filter>
  </defs>
  <rect x="120" y="120" width="560" height="360" rx="32" fill="#0b1535" fill-opacity="0.82" stroke="#1f2a4d" stroke-width="2"/>
  <g filter="url(#shadow)">
    <rect x="200" y="200" width="400" height="120" rx="22" fill="#0f172a" stroke="#1e293b" stroke-width="2"/>
    <rect x="216" y="218" width="368" height="84" rx="18" fill="url(#gradBg)"/>
    <rect x="232" y="238" width="200" height="10" rx="5" fill="#e0f2fe"/>
    <rect x="232" y="258" width="140" height="10" rx="5" fill="#bae6fd"/>
    <rect x="232" y="278" width="110" height="10" rx="5" fill="#a5b4fc"/>
    <path d="M520 236 L560 276 L520 316" fill="none" stroke="url(#gradArrow)" stroke-width="16" stroke-linecap="round" stroke-linejoin="round"/>
  </g>
  <g filter="url(#shadow)">
    <circle cx="220" cy="360" r="48" fill="#0ea5e9"/>
    <path d="M210 360h20m-10-10v20" stroke="#e0f2fe" stroke-width="8" stroke-linecap="round"/>
  </g>
  <g filter="url(#shadow)">
    <circle cx="580" cy="200" r="48" fill="#6366f1"/>
    <path d="M560 200h40m-20-20v40" stroke="#ede9fe" stroke-width="8" stroke-linecap="round"/>
  </g>
  <path d="M260 360 C320 320 480 240 540 200" stroke="url(#gradArrow)" stroke-width="10" stroke-linecap="round" stroke-linejoin="round" opacity="0.9"/>
  <path d="M540 200 C480 240 320 320 260 360" stroke="#22d3ee" stroke-width="4" stroke-dasharray="12 10" stroke-linecap="round" opacity="0.6"/>
</svg>
