<svg xmlns="http://www.w3.org/2000/svg" width="1200" height="800" viewBox="0 0 1200 800" fill="none">
  <defs>
    <linearGradient id="night" x1="0" y1="0" x2="1" y2="1">
      <stop offset="0%" stop-color="#0b1224"/>
      <stop offset="100%" stop-color="#0f1f3f"/>
    </linearGradient>
    <linearGradient id="beam" x1="0" y1="0" x2="0" y2="1">
      <stop offset="0%" stop-color="#22d3ee" stop-opacity="0.65"/>
      <stop offset="100%" stop-color="#6366f1" stop-opacity="0.08"/>
    </linearGradient>
    <linearGradient id="cardBody" x1="0" y1="0" x2="1" y2="1">
      <stop offset="0%" stop-color="#f8fafc"/>
      <stop offset="100%" stop-color="#e2e8f0"/>
    </linearGradient>
    <linearGradient id="accentLine" x1="0" y1="0" x2="1" y2="0">
      <stop offset="0%" stop-color="#22d3ee"/>
      <stop offset="100%" stop-color="#f472b6"/>
    </linearGradient>
    <filter id="shadow" x="-20%" y="-20%" width="140%" height="140%">
      <feDropShadow dx="0" dy="20" stdDeviation="22" flood-color="rgba(0,0,0,0.35)"/>
    </filter>
    <filter id="glow" x="-30%" y="-30%" width="160%" height="160%">
      <feGaussianBlur stdDeviation="28" result="blur"/>
      <feMerge>
        <feMergeNode in="blur"/>
        <feMergeNode in="SourceGraphic"/>
      </feMerge>
    </filter>
  </defs>
  <rect width="1200" height="800" fill="url(#night)"/>
  <circle cx="300" cy="220" r="220" fill="#22d3ee" fill-opacity="0.06"/>
  <circle cx="900" cy="540" r="260" fill="#6366f1" fill-opacity="0.06"/>
  <path d="M200 780 C 320 620, 520 640, 620 700 C 760 620, 960 640, 1040 780" fill="#0c142c" opacity="0.8"/>
  <rect x="360" y="150" width="480" height="520" rx="32" fill="#0e152b" stroke="#1c2540" stroke-width="2" filter="url(#shadow)"/>
  <rect x="400" y="190" width="400" height="240" rx="22" fill="#0b1f38" stroke="#1f2a4d" stroke-width="1.5"/>
  <rect x="420" y="220" width="360" height="180" rx="18" fill="#0b2f4f"/>
  <rect x="480" y="460" width="240" height="46" rx="16" fill="#0b1f38" stroke="#1e293b"/>
  <g filter="url(#glow)">
    <rect x="500" y="250" width="200" height="140" rx="16" fill="url(#cardBody)" stroke="#cbd5e1"/>
    <path d="M520 280 h120" stroke="#cbd5e1" stroke-width="10" stroke-linecap="round"/>
    <rect x="520" y="300" width="140" height="12" rx="6" fill="#a5b4c6"/>
    <rect x="520" y="324" width="110" height="12" rx="6" fill="#d4ddec"/>
    <rect x="520" y="348" width="160" height="12" rx="6" fill="#22d3ee" fill-opacity="0.35"/>
    <path d="M620 250 L680 210" stroke="url(#accentLine)" stroke-width="12" stroke-linecap="round"/>
  </g>
  <path d="M600 430 C 620 390, 660 380, 700 390" stroke="url(#accentLine)" stroke-width="12" stroke-linecap="round" stroke-linejoin="round" opacity="0.9"/>
  <g opacity="0.65">
    <path d="M340 420 C 420 340, 520 330, 600 360" stroke="#22d3ee" stroke-width="8" stroke-dasharray="18 12" stroke-linecap="round"/>
    <path d="M600 360 C 700 320, 820 340, 900 400" stroke="#f472b6" stroke-width="8" stroke-dasharray="18 12" stroke-linecap="round"/>
  </g>
  <g filter="url(#shadow)" opacity="0.9">
    <path d="M310 520 C 280 470, 280 440, 296 410 C 320 360, 360 340, 400 360 C 430 380, 440 420, 432 470 L 390 476" fill="#f2cbbf"/>
    <path d="M310 520 C 300 552, 302 584, 320 608 C 348 646, 400 662, 440 646 C 476 632, 490 592, 470 556 C 452 520, 410 504, 360 508 L 310 520 Z" fill="#182541"/>
    <path d="M360 360 C 360 320, 392 292, 430 298 C 472 306, 488 348, 470 388 C 454 424, 414 438, 380 420 L 360 360 Z" fill="#2a3a63"/>
    <circle cx="410" cy="330" r="38" fill="#fefefe"/>
    <path d="M392 326 C 388 318, 392 308, 402 304 C 414 300, 432 306, 438 316 C 444 328, 438 344, 426 348" stroke="#11182c" stroke-width="8" stroke-linecap="round"/>
    <path d="M430 342 C 424 356, 412 362, 396 360" stroke="#11182c" stroke-width="8" stroke-linecap="round"/>
    <path d="M352 504 C 368 494, 390 490, 412 494" stroke="#f8e7dc" stroke-width="12" stroke-linecap="round"/>
    <path d="M390 392 L 430 420" stroke="#11182c" stroke-width="14" stroke-linecap="round"/>
  </g>
  <g filter="url(#shadow)" opacity="0.9">
    <path d="M880 520 C 910 470, 910 440, 894 410 C 870 360, 830 340, 790 360 C 760 380, 750 420, 758 470 L 800 476" fill="#f6d7c5"/>
    <path d="M880 520 C 890 552, 888 584, 870 608 C 842 646, 790 662, 750 646 C 714 632, 700 592, 720 556 C 738 520, 780 504, 830 508 L 880 520 Z" fill="#142038"/>
    <path d="M830 360 C 830 320, 798 292, 760 298 C 718 306, 702 348, 720 388 C 736 424, 776 438, 810 420 L 830 360 Z" fill="#1f2f55"/>
    <circle cx="780" cy="330" r="38" fill="#fefefe"/>
    <path d="M798 326 C 802 318, 798 308, 788 304 C 776 300, 758 306, 752 316 C 746 328, 752 344, 764 348" stroke="#0f172a" stroke-width="8" stroke-linecap="round"/>
    <path d="M760 342 C 766 356, 778 362, 794 360" stroke="#0f172a" stroke-width="8" stroke-linecap="round"/>
    <path d="M838 504 C 822 494, 800 490, 778 494" stroke="#f6e6d8" stroke-width="12" stroke-linecap="round"/>
    <path d="M790 392 L 750 420" stroke="#0f172a" stroke-width="14" stroke-linecap="round"/>
  </g>
  <g filter="url(#shadow)">
    <path d="M520 620 C 520 568, 548 520, 596 520 C 644 520, 672 568, 672 620 L 672 700 L 520 700 Z" fill="#111b33"/>
    <path d="M620 520 C 622 474, 654 440, 700 444 C 742 448, 770 486, 762 528 C 754 572, 710 602, 666 592" fill="#f4d2c0"/>
    <path d="M620 520 C 618 474, 586 440, 540 444 C 498 448, 470 486, 478 528 C 486 572, 530 602, 574 592" fill="#f6d7c5"/>
    <rect x="552" y="610" width="88" height="110" rx="18" fill="#1f2e52"/>
    <rect x="548" y="580" width="96" height="42" rx="14" fill="#0f172a"/>
    <circle cx="580" cy="500" r="52" fill="#fefefe"/>
    <path d="M552 490 C 556 472, 574 464, 594 470 C 618 476, 630 502, 620 522" stroke="#0f172a" stroke-width="10" stroke-linecap="round"/>
    <path d="M600 520 C 594 534, 582 540, 566 538" stroke="#0f172a" stroke-width="10" stroke-linecap="round"/>
    <path d="M540 620 L 520 620 C 500 620, 490 604, 494 584 L 506 530" stroke="#f6d7c5" stroke-width="22" stroke-linecap="round"/>
    <path d="M704 620 L 724 620 C 744 620, 754 604, 750 584 L 738 530" stroke="#f4d2c0" stroke-width="22" stroke-linecap="round"/>
  </g>
  <g opacity="0.9" filter="url(#shadow)">
    <rect x="260" y="420" width="120" height="70" rx="18" fill="url(#beam)"/>
    <rect x="820" y="420" width="120" height="70" rx="18" fill="url(#beam)"/>
    <rect x="520" y="430" width="160" height="60" rx="18" fill="url(#beam)"/>
  </g>
  <g opacity="0.7">
    <path d="M260 512 C 300 492, 340 492, 380 512" stroke="#22d3ee" stroke-width="12" stroke-linecap="round" stroke-dasharray="16 12"/>
    <path d="M920 512 C 880 492, 840 492, 800 512" stroke="#f472b6" stroke-width="12" stroke-linecap="round" stroke-dasharray="16 12"/>
    <path d="M560 650 C 600 638, 640 638, 680 650" stroke="#22d3ee" stroke-width="12" stroke-linecap="round" stroke-dasharray="14 10"/>
  </g>
</svg>
