<svg xmlns="http://www.w3.org/2000/svg" width="1200" height="800" viewBox="0 0 1200 800" fill="none">
  <defs>
    <linearGradient id="bg" x1="0" y1="0" x2="1" y2="1">
      <stop offset="0%" stop-color="#0f172a"/>
      <stop offset="100%" stop-color="#0b3c5d"/>
    </linearGradient>
    <linearGradient id="screen" x1="0" y1="0" x2="1" y2="0">
      <stop offset="0%" stop-color="#0ea5e9"/>
      <stop offset="100%" stop-color="#6366f1"/>
    </linearGradient>
    <linearGradient id="card" x1="0" y1="0" x2="1" y2="1">
      <stop offset="0%" stop-color="#ffffff" stop-opacity="0.96"/>
      <stop offset="100%" stop-color="#e2e8f0" stop-opacity="0.9"/>
    </linearGradient>
    <linearGradient id="accent" x1="0" y1="0" x2="1" y2="0">
      <stop offset="0%" stop-color="#22d3ee"/>
      <stop offset="100%" stop-color="#f472b6"/>
    </linearGradient>
    <filter id="shadow" x="-20%" y="-20%" width="140%" height="140%">
      <feDropShadow dx="0" dy="16" stdDeviation="22" flood-color="rgba(0,0,0,0.35)"/>
    </filter>
  </defs>
  <rect width="1200" height="800" fill="url(#bg)"/>
  <circle cx="300" cy="260" r="200" fill="#0ea5e9" fill-opacity="0.08"/>
  <circle cx="880" cy="520" r="240" fill="#6366f1" fill-opacity="0.08"/>
  <g filter="url(#shadow)">
    <rect x="300" y="240" width="600" height="320" rx="28" fill="#0f172a" stroke="#1f2a4d" stroke-width="2"/>
    <rect x="330" y="270" width="540" height="200" rx="18" fill="#0b1f38" stroke="#1e293b" stroke-width="1.5"/>
    <rect x="350" y="300" width="500" height="140" rx="14" fill="url(#screen)"/>
    <rect x="460" y="520" width="280" height="32" rx="16" fill="#0b1f38" stroke="#1e293b"/>
  </g>
  <g filter="url(#shadow)">
    <rect x="180" y="200" width="220" height="140" rx="18" fill="url(#card)"/>
    <rect x="200" y="220" width="140" height="12" rx="6" fill="#cbd5e1"/>
    <rect x="200" y="244" width="110" height="12" rx="6" fill="#94a3b8"/>
    <rect x="200" y="268" width="80" height="12" rx="6" fill="#e2e8f0"/>
    <rect x="340" y="230" width="44" height="44" rx="10" fill="#0ea5e9"/>
    <path d="M356 248 L372 248" stroke="#e0f2fe" stroke-width="4" stroke-linecap="round"/>
    <path d="M356 258 L368 258" stroke="#bae6fd" stroke-width="4" stroke-linecap="round"/>
  </g>
  <g filter="url(#shadow)">
    <rect x="820" y="460" width="220" height="140" rx="18" fill="url(#card)"/>
    <rect x="840" y="480" width="140" height="12" rx="6" fill="#cbd5e1"/>
    <rect x="840" y="504" width="110" height="12" rx="6" fill="#94a3b8"/>
    <rect x="840" y="528" width="80" height="12" rx="6" fill="#e2e8f0"/>
    <rect x="960" y="490" width="44" height="44" rx="10" fill="#6366f1"/>
    <path d="M976 508 L992 508" stroke="#ede9fe" stroke-width="4" stroke-linecap="round"/>
    <path d="M976 518 L988 518" stroke="#c7d2fe" stroke-width="4" stroke-linecap="round"/>
  </g>
  <path d="M400 320 C 500 260, 700 260, 820 320" stroke="url(#accent)" stroke-width="14" stroke-linecap="round" stroke-linejoin="round" opacity="0.9"/>
  <path d="M400 340 C 520 300, 660 300, 780 340" stroke="#22d3ee" stroke-width="6" stroke-dasharray="18 12" stroke-linecap="round" opacity="0.65"/>
  <path d="M820 320 l -34 20 m 34 -20 l -34 -20" stroke="#f8fafc" stroke-width="10" stroke-linecap="round" stroke-linejoin="round"/>
  <path d="M380 320 l 34 20 m -34 -20 l 34 -20" stroke="#f8fafc" stroke-width="10" stroke-linecap="round" stroke-linejoin="round"/>
  <g>
    <circle cx="600" cy="440" r="26" fill="#0ea5e9"/>
    <path d="M592 440h16m-8-8v16" stroke="#e0f2fe" stroke-width="6" stroke-linecap="round"/>
  </g>
</svg>
