<svg xmlns="http://www.w3.org/2000/svg" width="1200" height="800" viewBox="0 0 1200 800" fill="none">
  <defs>
    <linearGradient id="bg" x1="0" y1="0" x2="1" y2="1">
      <stop offset="0%" stop-color="#0b1224"/>
      <stop offset="100%" stop-color="#0f1f3f"/>
    </linearGradient>
    <linearGradient id="beam" x1="0" y1="0" x2="0" y2="1">
      <stop offset="0%" stop-color="#22d3ee" stop-opacity="0.7"/>
      <stop offset="100%" stop-color="#6366f1" stop-opacity="0"/>
    </linearGradient>
    <linearGradient id="card" x1="0" y1="0" x2="1" y2="1">
      <stop offset="0%" stop-color="#f8fafc"/>
      <stop offset="100%" stop-color="#e2e8f0"/>
    </linearGradient>
    <linearGradient id="accent" x1="0" y1="0" x2="1" y2="0">
      <stop offset="0%" stop-color="#22d3ee"/>
      <stop offset="100%" stop-color="#f472b6"/>
    </linearGradient>
    <filter id="shadow" x="-20%" y="-20%" width="140%" height="140%">
      <feDropShadow dx="0" dy="18" stdDeviation="20" flood-color="rgba(0,0,0,0.32)"/>
    </filter>
  </defs>
  <rect width="1200" height="800" fill="url(#bg)"/>
  <circle cx="320" cy="220" r="210" fill="#22d3ee" fill-opacity="0.08"/>
  <circle cx="900" cy="540" r="260" fill="#6366f1" fill-opacity="0.08"/>
  <path d="M160 780 C 320 640, 520 640, 640 700 C 780 630, 980 650, 1080 780" fill="#0c142c" opacity="0.9"/>
  <rect x="380" y="160" width="440" height="500" rx="30" fill="#0e152b" stroke="#1c2540" stroke-width="2" filter="url(#shadow)"/>
  <rect x="410" y="200" width="380" height="220" rx="22" fill="#0b1f38" stroke="#1f2a4d" stroke-width="1.5"/>
  <rect x="430" y="228" width="340" height="164" rx="16" fill="#0b2f4f"/>
  <rect x="500" y="468" width="220" height="46" rx="16" fill="#0b1f38" stroke="#1e293b"/>
  <g filter="url(#shadow)">
    <rect x="520" y="262" width="180" height="120" rx="14" fill="url(#card)" stroke="#d9e2ec"/>
    <path d="M540 292 h120" stroke="#cbd5e1" stroke-width="10" stroke-linecap="round"/>
    <rect x="540" y="314" width="140" height="12" rx="6" fill="#a5b4c6"/>
    <rect x="540" y="338" width="110" height="12" rx="6" fill="#d4ddec"/>
    <rect x="540" y="362" width="150" height="10" rx="6" fill="#22d3ee" fill-opacity="0.4"/>
    <path d="M640 262 L700 224" stroke="url(#accent)" stroke-width="12" stroke-linecap="round"/>
  </g>
  <path d="M600 420 C 620 380, 660 370, 700 382" stroke="url(#accent)" stroke-width="12" stroke-linecap="round" opacity="0.9"/>
  <g opacity="0.7">
    <path d="M320 420 C 420 340, 540 328, 620 360" stroke="#22d3ee" stroke-width="8" stroke-dasharray="18 12" stroke-linecap="round"/>
    <path d="M620 360 C 740 320, 860 340, 940 400" stroke="#f472b6" stroke-width="8" stroke-dasharray="18 12" stroke-linecap="round"/>
  </g>
  <g filter="url(#shadow)">
    <path d="M300 540 C 268 500, 268 456, 292 420 C 324 370, 380 360, 420 380 C 458 400, 470 448, 454 500 L 410 504" fill="#f2cbbf"/>
    <path d="M300 540 C 286 580, 292 618, 316 648 C 352 690, 416 702, 460 684 C 502 668, 520 620, 498 576 C 476 532, 424 512, 360 518 L 300 540 Z" fill="#1a2642"/>
    <path d="M360 380 C 360 332, 398 302, 442 308 C 488 314, 510 358, 492 402 C 476 440, 430 456, 390 438 L 360 380 Z" fill="#25345d"/>
    <circle cx="418" cy="334" r="38" fill="#fefefe"/>
    <path d="M398 332 C 392 320, 398 306, 410 302 C 424 298, 446 306, 452 318 C 458 332, 450 350, 434 354" stroke="#0f172a" stroke-width="8" stroke-linecap="round"/>
    <path d="M440 350 C 432 364, 418 370, 402 368" stroke="#0f172a" stroke-width="8" stroke-linecap="round"/>
    <path d="M348 510 C 368 498, 396 494, 424 500" stroke="#f8e7dc" stroke-width="12" stroke-linecap="round"/>
  </g>
  <g filter="url(#shadow)">
    <path d="M900 540 C 932 500, 932 456, 908 420 C 876 370, 820 360, 780 380 C 742 400, 730 448, 746 500 L 790 504" fill="#f5d4c4"/>
    <path d="M900 540 C 914 580, 908 618, 884 648 C 848 690, 784 702, 740 684 C 698 668, 680 620, 702 576 C 724 532, 776 512, 840 518 L 900 540 Z" fill="#15203a"/>
    <path d="M840 380 C 840 332, 802 302, 758 308 C 712 314, 690 358, 708 402 C 724 440, 770 456, 810 438 L 840 380 Z" fill="#1f2f55"/>
    <circle cx="782" cy="334" r="38" fill="#fefefe"/>
    <path d="M802 332 C 808 320, 802 306, 790 302 C 776 298, 754 306, 748 318 C 742 332, 750 350, 764 354" stroke="#0b1224" stroke-width="8" stroke-linecap="round"/>
    <path d="M760 350 C 768 364, 782 370, 798 368" stroke="#0b1224" stroke-width="8" stroke-linecap="round"/>
    <path d="M852 510 C 832 498, 804 494, 776 500" stroke="#f6e6d8" stroke-width="12" stroke-linecap="round"/>
  </g>
  <g filter="url(#shadow)">
    <path d="M520 640 C 520 586, 554 540, 604 540 C 654 540, 688 586, 688 640 L 688 710 L 520 710 Z" fill="#111b33"/>
    <path d="M604 540 C 606 494, 640 460, 688 466 C 730 470, 758 510, 748 552 C 740 594, 698 624, 650 616" fill="#f4d2c0"/>
    <path d="M604 540 C 602 494, 568 460, 520 466 C 478 470, 450 510, 460 552 C 468 594, 510 624, 558 616" fill="#f6d7c5"/>
    <rect x="554" y="628" width="96" height="108" rx="18" fill="#1f2e52"/>
    <rect x="548" y="594" width="108" height="46" rx="16" fill="#0f172a"/>
    <circle cx="584" cy="516" r="54" fill="#fefefe"/>
    <path d="M556 506 C 562 486, 582 478, 604 484 C 630 492, 642 520, 630 542" stroke="#0b1224" stroke-width="10" stroke-linecap="round"/>
    <path d="M604 538 C 596 552, 582 558, 566 556" stroke="#0b1224" stroke-width="10" stroke-linecap="round"/>
    <path d="M540 640 L 520 640 C 500 640, 488 622, 492 602 L 504 546" stroke="#f6d7c5" stroke-width="22" stroke-linecap="round"/>
    <path d="M708 640 L 728 640 C 748 640, 760 622, 756 602 L 744 546" stroke="#f4d2c0" stroke-width="22" stroke-linecap="round"/>
  </g>
  <g opacity="0.9">
    <rect x="260" y="430" width="130" height="80" rx="20" fill="url(#beam)"/>
    <rect x="820" y="430" width="130" height="80" rx="20" fill="url(#beam)"/>
    <rect x="520" y="440" width="160" height="66" rx="20" fill="url(#beam)"/>
  </g>
  <g opacity="0.75">
    <path d="M260 520 C 304 498, 348 498, 392 520" stroke="#22d3ee" stroke-width="12" stroke-linecap="round" stroke-dasharray="16 12"/>
    <path d="M920 520 C 876 498, 832 498, 788 520" stroke="#f472b6" stroke-width="12" stroke-linecap="round" stroke-dasharray="16 12"/>
    <path d="M560 660 C 604 646, 648 646, 692 660" stroke="#22d3ee" stroke-width="12" stroke-linecap="round" stroke-dasharray="14 10"/>
  </g>
</svg>
